<svg width="80" height="80" viewBox="0 0 80 80" fill="none" xmlns="http://www.w3.org/2000/svg">
<path d="M70.0446 43.4375C71.0327 44.8535 72.6733 45.7812 74.5312 45.7812C77.5513 45.7812 80 43.3325 80 40.3125C80 37.2925 77.5513 34.8438 74.5312 34.8438C72.6733 34.8438 71.0327 35.7715 70.0446 37.1875H43.125V29.2188H66.0938V14.6875H70.0446C71.0327 16.1035 72.6733 17.0312 74.5312 17.0312C77.5513 17.0312 80 14.5825 80 11.5625C80 8.54248 77.5513 6.09375 74.5312 6.09375C72.6733 6.09375 71.0327 7.02148 70.0446 8.4375H59.8438V22.9688H43.125V11.2244C43.125 5.0354 38.078 0 31.875 0C28.9722 0 26.2372 1.10291 24.1742 3.10486C22.7917 4.4458 21.7932 6.10962 21.2476 7.94067C21.1633 7.95471 21.0797 7.97241 20.9967 7.98828C20.932 8.00049 20.8673 8.01208 20.8032 8.02551C20.6744 8.05237 20.5475 8.08289 20.4199 8.11401C20.3754 8.125 20.3302 8.13416 20.2863 8.14575C20.1141 8.19031 19.9438 8.23853 19.7754 8.29102C19.7479 8.29956 19.7217 8.30933 19.6942 8.31787C19.5544 8.36304 19.4147 8.40942 19.2773 8.45947C19.2218 8.47961 19.1675 8.50159 19.1125 8.52295C19.0039 8.56445 18.8959 8.60596 18.7891 8.65051C18.7274 8.67615 18.667 8.70361 18.606 8.73047C18.5071 8.7738 18.4088 8.81775 18.3118 8.86414C18.2489 8.89343 18.1866 8.92456 18.1244 8.95569C18.0304 9.00208 17.937 9.04968 17.8442 9.09912C17.7826 9.13208 17.7209 9.16504 17.6599 9.19922C17.5684 9.25049 17.4774 9.30237 17.3871 9.35608C17.3285 9.39148 17.2693 9.42627 17.2107 9.46228C17.1191 9.51904 17.0288 9.57764 16.9391 9.63684C16.8848 9.67224 16.8304 9.70764 16.7761 9.74426C16.6809 9.80957 16.5875 9.87732 16.4941 9.94507C16.4484 9.97864 16.402 10.011 16.3562 10.0452C16.2421 10.1312 16.1304 10.2197 16.0199 10.3101C15.9973 10.3284 15.9741 10.3455 15.9515 10.3638C15.8179 10.4749 15.6866 10.5884 15.5579 10.705C15.5322 10.7288 15.5072 10.7538 15.4816 10.7776C15.3809 10.8704 15.282 10.9637 15.1849 11.0602C15.144 11.1011 15.1044 11.1432 15.0635 11.1853C14.9841 11.2665 14.9054 11.3483 14.8285 11.4319C14.7839 11.4801 14.7412 11.5295 14.6973 11.5784C14.6265 11.6583 14.5569 11.7383 14.4879 11.8201C14.444 11.8726 14.4006 11.9257 14.3579 11.9794C14.292 12.0605 14.2279 12.1423 14.1644 12.2253C14.1223 12.2803 14.0808 12.3358 14.0399 12.392C13.9777 12.4762 13.9172 12.561 13.858 12.6471C13.819 12.7039 13.7799 12.76 13.7415 12.8168C13.6823 12.9065 13.6249 12.9974 13.5675 13.0884C13.5327 13.1439 13.4979 13.1989 13.4637 13.255C13.4039 13.3545 13.3466 13.4558 13.2898 13.5577C13.2623 13.6072 13.233 13.6554 13.2062 13.7054C13.1329 13.8409 13.0634 13.9783 12.995 14.1168C12.9871 14.1339 12.9779 14.1504 12.9694 14.1675C12.8937 14.3243 12.8223 14.4836 12.7533 14.6448C12.7344 14.6893 12.7173 14.7351 12.699 14.7803C12.6514 14.8962 12.6044 15.0122 12.5604 15.1306C12.5378 15.191 12.5171 15.2527 12.4957 15.3137C12.4591 15.4181 12.4231 15.5219 12.3895 15.6274C12.3682 15.6946 12.348 15.7629 12.3279 15.8307C12.298 15.932 12.2687 16.0333 12.2412 16.1353C12.2223 16.2067 12.2046 16.2781 12.1869 16.3495C12.1619 16.4508 12.1381 16.5521 12.1161 16.6547C12.1002 16.7273 12.085 16.8005 12.0709 16.8738C12.0502 16.9769 12.0319 17.0813 12.0148 17.1857C12.0026 17.2583 11.9904 17.3315 11.9794 17.4048C11.9635 17.5134 11.9507 17.6227 11.9379 17.7319C11.9299 17.8021 11.9208 17.8717 11.9135 17.9419C11.9019 18.0634 11.8939 18.1854 11.886 18.3075C11.8823 18.3673 11.8768 18.4265 11.8738 18.4863C11.8646 18.6688 11.8597 18.8519 11.8597 19.0369C11.8597 19.2126 11.8652 19.3878 11.8732 19.5624C11.8744 19.5911 11.8756 19.6204 11.8768 19.649C11.8781 19.6759 11.8787 19.7028 11.8805 19.7296C7.51221 21.275 4.375 25.4468 4.375 30.3381C4.375 31.2 4.48975 32.0648 4.7168 32.9279C1.81152 35.0183 0 38.3478 0 41.9165C0 44.588 0.974121 47.1259 2.67456 49.1241C0.973511 51.1066 0 53.6456 0 56.3397C0 61.8384 3.96606 66.4288 9.18823 67.3999C10.0079 72.8021 14.6832 76.955 20.3107 76.955C21.4221 76.955 22.5183 76.7932 23.5657 76.4795C25.6189 78.7213 28.5657 80 31.875 80C34.8737 80 37.6886 78.8684 39.7998 76.8127C41.944 74.7253 43.125 71.9177 43.125 68.9062V57.3438H71.4062V65.9821C69.9902 66.9702 69.0625 68.6108 69.0625 70.4688C69.0625 73.4888 71.5112 75.9375 74.5312 75.9375C77.5513 75.9375 80 73.4888 80 70.4688C80 68.6108 79.0723 66.9702 77.6562 65.9821V51.0938H43.125V43.4375H70.0446ZM31.875 73.75C29.8895 73.75 28.2849 72.8351 27.4725 71.239L26.6034 69.5312H23.6542L22.9053 69.9878C22.135 70.4572 21.239 70.705 20.3125 70.705V70.6329C17.5616 70.6329 15.3223 68.3997 15.3131 65.6506C15.3156 65.4022 15.3357 65.1489 15.3772 64.8962L15.4358 64.5337C15.9381 62.3041 17.9333 60.6329 20.3125 60.6329V54.3829C15.6915 54.3829 11.7139 57.1844 9.98474 61.1768C7.83813 60.6152 6.25 58.6597 6.25 56.3397C6.25 54.4934 7.25586 52.8674 8.94165 51.9916L10.625 51.1163V47.2021L8.98132 46.3171C7.29614 45.4108 6.25 43.7244 6.25 41.9165C6.25 39.6057 7.97058 37.9358 9.6759 37.3065L11.7188 36.5527V33.4119L11.3281 32.7057C10.8551 31.8506 10.625 31.076 10.625 30.3381C10.625 28.1537 12.0343 26.2927 13.9917 25.614C16.037 28.4418 19.361 30.2869 23.1097 30.2869V24.0369C20.3528 24.0369 18.1097 21.7938 18.1097 19.0369C18.1097 16.2793 20.3528 14.0369 23.1097 14.0369C23.2239 14.0369 23.3545 14.0424 23.5101 14.0546L25.0049 14.1736L26.9653 12.0905L27.027 10.9491C27.171 8.27026 29.2548 6.25 31.875 6.25C34.632 6.25 36.875 8.48145 36.875 11.2244V40.1562H36.8597C36.8597 42.9132 34.6167 45.1562 31.8597 45.1562C29.1028 45.1562 26.8597 42.9132 26.8597 40.1562H20.6097C20.6097 46.3593 25.6567 51.4062 31.8597 51.4062C33.6615 51.4062 35.3638 50.9784 36.875 50.2222V68.9062C36.875 71.6223 34.679 73.75 31.875 73.75Z" fill="url(#paint0_linear_467_91)"/>
<defs>
<linearGradient id="paint0_linear_467_91" x1="40" y1="0" x2="40" y2="80" gradientUnits="userSpaceOnUse">
<stop stop-color="#31F469"/>
<stop offset="1" stop-color="#00B0F0"/>
</linearGradient>
</defs>
</svg>
