<svg width="85" height="80" viewBox="0 0 85 80" fill="none" xmlns="http://www.w3.org/2000/svg">
<path d="M9.67129 13.2152H34.4183C35.308 13.2152 36.033 12.4884 36.033 11.5964C36.033 10.7044 35.308 9.97754 34.4183 9.97754H9.67129C8.78159 9.97754 8.05664 10.7044 8.05664 11.5964C8.05664 12.4884 8.78159 13.2152 9.67129 13.2152Z" fill="url(#paint0_linear_196_121)"/>
<path d="M9.67129 24.432H43.3813C44.271 24.432 44.9959 23.7052 44.9959 22.8132C44.9959 21.9212 44.271 21.1943 43.3813 21.1943H9.67129C8.78159 21.1943 8.05664 21.9212 8.05664 22.8132C8.05664 23.7052 8.78159 24.432 9.67129 24.432Z" fill="url(#paint1_linear_196_121)"/>
<path d="M9.67129 35.6634H36.8732C37.7629 35.6634 38.4879 34.9366 38.4879 34.0446C38.4879 33.1526 37.7629 32.4258 36.8732 32.4258H9.67129C8.78159 32.4258 8.05664 33.1526 8.05664 34.0446C8.05664 34.9366 8.78159 35.6634 9.67129 35.6634Z" fill="url(#paint2_linear_196_121)"/>
<path d="M9.67129 46.8959H32.8696C33.7593 46.8959 34.4842 46.169 34.4842 45.277C34.4842 44.385 33.7593 43.6582 32.8696 43.6582H9.67129C8.78159 43.6582 8.05664 44.385 8.05664 45.277C8.05664 46.169 8.78159 46.8959 9.67129 46.8959Z" fill="url(#paint3_linear_196_121)"/>
<path d="M9.67129 58.1302H36.8238C37.7135 58.1302 38.4385 57.4034 38.4385 56.5114C38.4385 55.6194 37.7135 54.8926 36.8238 54.8926H9.67129C8.78159 54.8926 8.05664 55.6194 8.05664 56.5114C8.05664 57.4034 8.78159 58.1302 9.67129 58.1302Z" fill="url(#paint4_linear_196_121)"/>
<path d="M49.774 66.124H9.67129C8.78159 66.124 8.05664 66.8508 8.05664 67.7429C8.05664 68.6349 8.78159 69.3617 9.67129 69.3617H49.774C50.6637 69.3617 51.3886 68.6349 51.3886 67.7429C51.3886 66.8508 50.6637 66.124 49.774 66.124Z" fill="url(#paint5_linear_196_121)"/>
<path d="M63.4328 34.5736C64.3225 34.5736 65.0474 33.8468 65.0474 32.9548V13.5784C65.0474 13.1489 64.8827 12.7359 64.5861 12.4386L52.6245 0.462523C52.3114 0.165187 51.916 0 51.4876 0H4.38263C1.97712 0 0 1.89965 0 4.22878V75.7877C0 78.1169 1.96065 80 4.38263 80H60.6813C63.0703 80 65.0309 78.1003 65.0474 75.7712V65.4305C65.0474 64.5385 64.3225 63.8117 63.4328 63.8117C62.5431 63.8117 61.8181 64.5385 61.8181 65.4305V75.7712C61.8181 76.3163 61.3074 76.7623 60.6648 76.7623H4.38263C3.74006 76.7623 3.2293 76.3163 3.2293 75.7712V4.22878C3.2293 3.66715 3.75654 3.22114 4.38263 3.22114H49.8565V10.9684C49.8565 13.2975 51.8007 15.1972 54.2062 15.1972H61.8181V32.9548C61.8181 33.8468 62.5431 34.5736 63.4328 34.5736ZM53.0693 10.9684V5.4842L59.5444 11.976H54.2062C53.5801 11.976 53.0693 11.53 53.0693 10.9684Z" fill="url(#paint6_linear_196_121)"/>
<path d="M60.6152 35.3015C57.9461 32.6254 54.4037 31.1553 50.6307 31.1553C46.8577 31.1553 43.2989 32.6254 40.6462 35.3015C37.9936 37.9775 36.5107 41.529 36.5107 45.3118C36.5107 49.0946 37.9771 52.6626 40.6462 55.3221C43.3153 57.9981 46.8577 59.4683 50.6307 59.4683C54.4037 59.4683 57.9625 57.9981 60.6152 55.3221C63.2843 52.6461 64.7507 49.078 64.7507 45.3118C64.7507 41.5455 63.2843 37.961 60.6152 35.3015ZM61.5214 45.2953C61.5214 48.2191 60.3845 50.9612 58.325 53.026C56.2655 55.0908 53.5305 56.2141 50.6142 56.2141C47.698 56.2141 44.9629 55.0743 42.9034 53.026C38.6526 48.7642 38.6526 41.8263 42.9034 37.5645C44.9629 35.4997 47.7145 34.3764 50.6142 34.3764C53.5305 34.3764 56.2655 35.4997 58.3085 37.5645C60.368 39.6294 61.5049 42.3715 61.5049 45.2953H61.5214Z" fill="url(#paint7_linear_196_121)"/>
<path d="M84.0611 69.1143L72.2313 57.2538C71.6381 56.6592 70.7978 56.3288 69.9081 56.3288C69.0184 56.3288 68.4912 56.56 67.931 56.973L66.8436 55.8828C71.7205 48.3668 70.8637 38.1747 64.2898 31.5838C59.6435 26.9255 55.7717 25.9014 50.5982 25.9014C45.4247 25.9014 40.5643 27.9166 36.9066 31.5838C29.3606 39.1494 29.3605 51.4724 36.9066 59.0378C41.2894 63.4319 45.4247 64.7038 50.5982 64.7038C55.7717 64.7038 58.0289 63.6135 61.1264 61.5982L62.2138 62.6885C61.7854 63.2501 61.5548 63.9274 61.5548 64.6542C61.5548 65.381 61.9008 66.3556 62.5104 66.9833L64.504 68.9821L72.3466 76.845L74.3402 78.8438C74.9498 79.4549 75.7736 79.8018 76.6633 79.8018C77.5365 79.8018 78.3603 79.4549 78.9864 78.8438L84.0446 73.7725C84.6542 73.1613 85.0002 72.3354 85.0002 71.4434C85.0002 70.5514 84.6542 69.742 84.0446 69.1143H84.0611ZM63.5484 55.0238C63.5154 55.0734 63.4825 55.1064 63.4495 55.156C63.0211 55.7176 62.5598 56.2462 62.0491 56.7583C59.001 59.8142 54.9479 61.4826 50.6312 61.4826C46.3144 61.4826 42.2613 59.7977 39.2133 56.7583C36.1652 53.7023 34.5011 49.6387 34.5011 45.3108C34.5011 40.9829 36.1817 36.9193 39.2133 33.8634C42.2613 30.8074 46.3144 29.1225 50.6312 29.1225C54.9479 29.1225 59.001 30.8074 62.0491 33.8634C65.0971 36.9193 66.7612 40.9829 66.7612 45.3108C66.7612 49.6387 65.6244 52.2487 63.5484 55.0238ZM64.3228 59.0378C64.5205 58.8396 64.7017 58.6414 64.8829 58.4432L65.6573 59.2196L64.4875 60.3924L63.7131 59.616C63.9109 59.4343 64.125 59.2361 64.3228 59.0378ZM69.0679 60.3593L69.8917 59.5334C69.9081 59.5169 69.9246 59.5169 69.9411 59.5169V59.5334L70.7978 60.3924L65.6573 65.5462L64.817 64.7038C64.7841 64.6707 64.8006 64.6212 64.817 64.6046L69.0679 60.3428V60.3593ZM73.088 62.672L78.6569 68.2553L73.5164 73.4091L67.9475 67.8258L73.088 62.672ZM75.7901 75.6887L80.9306 70.5349L81.7709 71.3773C81.8038 71.4103 81.8038 71.4434 81.7709 71.4764L76.7292 76.5311C76.7127 76.5311 76.6963 76.5477 76.6798 76.5477C76.6633 76.5477 76.6468 76.5477 76.6468 76.5311L75.7901 75.6722V75.6887Z" fill="url(#paint8_linear_196_121)"/>
<defs>
<linearGradient id="paint0_linear_196_121" x1="22.0448" y1="9.97754" x2="22.0448" y2="13.2152" gradientUnits="userSpaceOnUse">
<stop stop-color="#31F469"/>
<stop offset="1" stop-color="#00B0F0"/>
</linearGradient>
<linearGradient id="paint1_linear_196_121" x1="26.5263" y1="21.1943" x2="26.5263" y2="24.432" gradientUnits="userSpaceOnUse">
<stop stop-color="#31F469"/>
<stop offset="1" stop-color="#00B0F0"/>
</linearGradient>
<linearGradient id="paint2_linear_196_121" x1="23.2723" y1="32.4258" x2="23.2723" y2="35.6634" gradientUnits="userSpaceOnUse">
<stop stop-color="#31F469"/>
<stop offset="1" stop-color="#00B0F0"/>
</linearGradient>
<linearGradient id="paint3_linear_196_121" x1="21.2704" y1="43.6582" x2="21.2704" y2="46.8959" gradientUnits="userSpaceOnUse">
<stop stop-color="#31F469"/>
<stop offset="1" stop-color="#00B0F0"/>
</linearGradient>
<linearGradient id="paint4_linear_196_121" x1="23.2476" y1="54.8926" x2="23.2476" y2="58.1302" gradientUnits="userSpaceOnUse">
<stop stop-color="#31F469"/>
<stop offset="1" stop-color="#00B0F0"/>
</linearGradient>
<linearGradient id="paint5_linear_196_121" x1="29.7226" y1="66.124" x2="29.7226" y2="69.3617" gradientUnits="userSpaceOnUse">
<stop stop-color="#31F469"/>
<stop offset="1" stop-color="#00B0F0"/>
</linearGradient>
<linearGradient id="paint6_linear_196_121" x1="32.5237" y1="0" x2="32.5237" y2="80" gradientUnits="userSpaceOnUse">
<stop stop-color="#31F469"/>
<stop offset="1" stop-color="#00B0F0"/>
</linearGradient>
<linearGradient id="paint7_linear_196_121" x1="50.6307" y1="31.1553" x2="50.6307" y2="59.4683" gradientUnits="userSpaceOnUse">
<stop stop-color="#31F469"/>
<stop offset="1" stop-color="#00B0F0"/>
</linearGradient>
<linearGradient id="paint8_linear_196_121" x1="58.1236" y1="25.9014" x2="58.1236" y2="79.8018" gradientUnits="userSpaceOnUse">
<stop stop-color="#31F469"/>
<stop offset="1" stop-color="#00B0F0"/>
</linearGradient>
</defs>
</svg>
