<svg width="101" height="80" viewBox="0 0 101 80" fill="none" xmlns="http://www.w3.org/2000/svg">
<path d="M88.2547 57.3892C87.9427 57.1998 87.5827 57.1051 87.1986 57.1051C86.5026 57.1051 85.8545 57.4603 85.4945 58.0521C81.7022 64.1131 75.1257 67.7592 67.9011 67.7592C60.6765 67.7592 51.0518 62.148 48.2916 53.8852C48.6276 54.1457 49.0596 54.2877 49.4916 54.2877C49.9237 54.2877 50.4997 54.0983 50.8838 53.7432C51.2678 53.3644 51.4838 52.8909 51.4838 52.3463C51.4838 51.8254 51.2918 51.3283 50.9078 50.9495L46.6834 46.6642C46.2994 46.2853 45.7954 46.0723 45.2433 46.0723C44.5233 46.0723 43.8512 46.4511 43.4912 47.0903L40.5149 52.299C40.2509 52.7488 40.1789 53.2933 40.3229 53.7905C40.4669 54.2877 40.803 54.7139 41.259 54.9743C41.571 55.14 41.907 55.2347 42.2431 55.2347C42.9631 55.2347 43.6352 54.8559 43.9952 54.2404L44.1632 53.9563C45.5313 58.8334 48.4596 63.2134 52.4919 66.386C56.8602 69.8426 62.3327 71.7367 67.9251 71.7367C76.5418 71.7367 84.3904 67.404 88.9268 60.1593C89.5028 59.2359 89.2148 58.0048 88.2787 57.4366L88.2547 57.3892Z" fill="url(#paint0_linear_196_82)"/>
<path d="M100.976 45.3389C100.016 30.0207 88.255 17.3542 72.8938 15.0577V11.7905H79.7343C81.9905 11.7905 83.8386 9.96745 83.8386 7.74193V4.04853C83.8386 1.82302 81.9905 0 79.7343 0H56.0924C53.8363 0 51.9881 1.82302 51.9881 4.04853V7.74193C51.9881 9.96745 53.8363 11.7905 56.0924 11.7905H62.933V15.0577C59.7167 15.5312 56.5965 16.4782 53.6443 17.8751H39.0511C37.947 17.8751 37.0589 18.7511 37.0589 19.8402C37.0589 20.9293 37.947 21.8053 39.0511 21.8053H47.2837C43.8755 24.5043 40.9953 27.8662 38.8831 31.6307H1.99216C0.88807 31.6307 0 32.5067 0 33.5957C0 34.6848 0.88807 35.5608 1.99216 35.5608H37.0349C35.7868 38.7097 35.0668 42.0243 34.8508 45.3862H13.2971C12.193 45.3862 11.3049 46.2622 11.3049 47.3513C11.3049 48.4404 12.193 49.3164 13.2971 49.3164H34.8508C35.0668 52.6783 35.7868 55.9692 37.0349 59.1418H24.6019C23.4979 59.1418 22.6098 60.0178 22.6098 61.1068C22.6098 62.1959 23.4979 63.0719 24.6019 63.0719H38.9071C40.9953 66.8363 43.8755 70.1983 47.3078 72.8736H31.5385C30.4344 72.8736 29.5463 73.7496 29.5463 74.8387C29.5463 75.9278 30.4344 76.8038 31.5385 76.8038H53.6683C58.1566 78.9109 62.957 80 67.9494 80C85.4228 80 99.9439 66.5286 101 49.34V45.3389V45.3152L100.976 45.3389ZM79.7343 7.86031H56.0924C56.0444 7.86031 55.9724 7.78929 55.9724 7.74193V4.04853C55.9724 4.00118 56.0444 3.93016 56.0924 3.93016H79.7343C79.8063 3.93016 79.8543 4.00118 79.8543 4.04853V7.74193C79.8543 7.78929 79.8063 7.86031 79.7343 7.86031ZM68.9095 11.7905V14.7026H66.9413V11.7905H68.9095ZM97.0397 47.3513C97.0397 63.1903 83.9827 76.0698 67.9254 76.0698C51.8681 76.0698 38.7871 63.1903 38.7871 47.3513C38.7871 31.5123 51.8441 18.6327 67.9254 18.6327C83.9827 18.6327 97.0397 31.5123 97.0397 47.3513Z" fill="url(#paint1_linear_196_82)"/>
<path d="M83.2393 28.2921C78.895 24.9065 73.4466 23.0361 67.9261 23.0361C59.3095 23.0361 51.4608 27.3688 46.9245 34.6135C46.6364 35.0634 46.5644 35.5842 46.6844 36.0814C46.8045 36.6023 47.1165 37.0284 47.5725 37.3125C47.8845 37.502 48.2446 37.5967 48.6286 37.5967C49.3247 37.5967 49.9727 37.2415 50.3327 36.6496C54.149 30.5887 60.7256 26.9426 67.9501 26.9426C75.1747 26.9426 77.2869 28.5052 80.9832 31.441C84.1514 33.9506 86.4796 37.3836 87.6797 41.1954L87.6077 41.1243C87.2237 40.7692 86.7436 40.5798 86.2156 40.5798C85.6875 40.5798 85.1595 40.7929 84.7755 41.1954C84.4154 41.5742 84.1994 42.0713 84.2234 42.5922C84.2234 43.1131 84.4394 43.6103 84.8235 43.9891L89.2158 48.1323C89.5758 48.4874 90.0799 48.7005 90.6079 48.7005C91.352 48.7005 92.048 48.2744 92.3841 47.6115L95.1923 42.3318C95.6963 41.3611 95.3123 40.1773 94.3522 39.6801C94.0642 39.5381 93.7522 39.467 93.4402 39.467C92.6961 39.467 92 39.8695 91.664 40.5324V40.5798C90.2479 35.7736 87.2957 31.4647 83.3114 28.3395L83.2393 28.2921Z" fill="url(#paint2_linear_196_82)"/>
<path d="M73.036 31.4637C71.7159 30.5167 70.0357 30.0195 68.1636 30.0195H67.6595C65.2353 30.0195 62.9552 30.9429 61.7071 32.4344C60.867 33.4525 60.531 34.6363 60.771 35.8911L63.2192 48.6049C63.5312 50.1438 65.0913 51.7301 67.9236 51.7301C70.7558 51.7301 72.1959 50.7594 72.6039 48.6049L75.0521 35.8911C75.2441 34.8967 75.2201 33.0263 73.036 31.4637ZM71.1158 35.1571L68.7156 47.6342C68.5716 47.7052 68.2596 47.7763 67.8515 47.7763C67.4435 47.7763 67.2035 47.6816 67.0835 47.6105L64.6833 35.1335C64.6593 34.9677 64.8993 34.7783 65.1153 34.6363C65.9314 34.0444 66.7475 33.9497 68.1396 33.9497C69.5317 33.9497 70.0597 34.1864 70.6838 34.6363C70.8998 34.7783 71.1398 34.9914 71.1158 35.1571Z" fill="url(#paint3_linear_196_82)"/>
<path d="M61.9727 58.81C61.9727 62.0536 64.6369 64.6816 67.9251 64.6816C71.2134 64.6816 73.8776 62.0536 73.8776 58.81C73.8776 55.5665 71.2134 52.9385 67.9251 52.9385C64.6369 52.9385 61.9727 55.5665 61.9727 58.81ZM69.8693 58.81C69.8693 59.8754 69.0052 60.7514 67.9251 60.7514C66.845 60.7514 65.957 59.8754 65.957 58.81C65.957 57.7446 66.845 56.8923 67.9251 56.8923C69.0052 56.8923 69.8693 57.7683 69.8693 58.81Z" fill="url(#paint4_linear_196_82)"/>
<defs>
<linearGradient id="paint0_linear_196_82" x1="64.7367" y1="46.0723" x2="64.7367" y2="71.7367" gradientUnits="userSpaceOnUse">
<stop stop-color="#31F469"/>
<stop offset="1" stop-color="#00B0F0"/>
</linearGradient>
<linearGradient id="paint1_linear_196_82" x1="50.5" y1="0" x2="50.5" y2="80" gradientUnits="userSpaceOnUse">
<stop stop-color="#31F469"/>
<stop offset="1" stop-color="#00B0F0"/>
</linearGradient>
<linearGradient id="paint2_linear_196_82" x1="71.0217" y1="23.0361" x2="71.0217" y2="48.7005" gradientUnits="userSpaceOnUse">
<stop stop-color="#31F469"/>
<stop offset="1" stop-color="#00B0F0"/>
</linearGradient>
<linearGradient id="paint3_linear_196_82" x1="67.911" y1="30.0195" x2="67.911" y2="51.7301" gradientUnits="userSpaceOnUse">
<stop stop-color="#31F469"/>
<stop offset="1" stop-color="#00B0F0"/>
</linearGradient>
<linearGradient id="paint4_linear_196_82" x1="67.9251" y1="52.9385" x2="67.9251" y2="64.6816" gradientUnits="userSpaceOnUse">
<stop stop-color="#31F469"/>
<stop offset="1" stop-color="#00B0F0"/>
</linearGradient>
</defs>
</svg>
