<svg width="95" height="81" viewBox="0 0 95 81" fill="none" xmlns="http://www.w3.org/2000/svg">
<path d="M47.106 28.9541C43.4502 28.9541 40.4707 31.9519 40.4707 35.6077C40.4707 39.2635 42.39 41.1097 45.1501 41.9688L45.1867 48.3665C45.1867 49.445 46.0641 50.3041 47.1608 50.3041C48.2576 50.3041 48.2028 50.103 48.5683 49.7374C48.9339 49.3718 49.135 48.8966 49.135 48.3665L49.0984 41.9688C51.8586 41.1097 53.7596 38.5323 53.7596 35.6077C53.7596 32.683 50.7801 28.9541 47.1243 28.9541H47.106ZM49.8296 35.6077C49.8296 37.1066 48.6049 38.3313 47.1243 38.3313C45.6437 38.3313 44.419 37.1066 44.419 35.6077C44.419 34.1088 45.6437 32.8841 47.1243 32.8841C48.6049 32.8841 49.8296 34.1088 49.8296 35.6077Z" fill="url(#paint0_linear_196_102)"/>
<path d="M87.9224 33.3776C85.1074 33.3776 82.6946 35.1324 81.8537 37.7829H71.8002C72.3486 35.1324 72.7873 32.354 73.1346 29.3196H80.629C81.7075 29.3196 82.4935 28.5154 82.4935 27.4186V12.4115C85.144 11.5707 86.9536 9.12126 86.9536 6.36112C86.9536 3.60098 84.1021 0 80.6108 0C77.1195 0 74.1948 2.85154 74.1948 6.36112C74.1948 9.8707 76.0044 11.5341 78.5452 12.4115V25.4079H73.5368C73.7561 23.0865 73.9389 20.6005 74.0851 18.2608C74.1217 17.7307 73.9389 17.2189 73.5733 16.835C73.2077 16.4329 72.6776 16.2135 72.1293 16.2135C72.0196 16.2135 71.9282 16.2135 71.8185 16.2318C69.5336 16.6705 67.7788 16.8533 66.1337 16.8533C59.7909 16.8533 53.9964 14.0018 48.403 8.13419V8.11591C47.946 7.73205 47.4708 7.53098 46.9955 7.53098C46.502 7.53098 46.0085 7.75033 45.5515 8.17075V8.20731C40.7989 13.8007 34.584 16.7436 27.5831 16.7436C20.5822 16.7436 24.2015 16.5791 22.5016 16.2318C22.3736 16.2135 22.2639 16.1953 22.136 16.1953C21.5876 16.1953 21.0575 16.4329 20.6736 16.835C20.3081 17.2372 20.1253 17.7307 20.1618 18.2608C20.3081 20.4543 20.4909 22.9951 20.7102 25.4079H16.1587V12.4115C18.7178 11.5341 20.5457 9.02987 20.5457 6.36112C20.5457 3.69237 17.6759 0 14.1663 0C10.6567 0 7.80517 2.85154 7.80517 6.36112C7.80517 9.8707 8.26215 9.13954 9.12126 10.2546C9.92554 11.2782 10.9857 12.0276 12.2287 12.4298V27.4369C12.2287 28.5154 13.0513 29.3379 14.1663 29.3379H21.1123C21.4596 32.3905 21.8801 35.169 22.4102 37.8011H12.4481C11.6072 35.1507 9.21266 33.3959 6.3794 33.3959C2.86982 33.3959 0 36.2474 0 39.757C0 43.2666 2.85154 46.1181 6.3794 46.1181C9.90726 46.1181 11.6072 44.3633 12.4481 41.7129H23.3241C24.1832 44.8203 25.3714 47.7084 26.4498 50.1761H14.1297C13.033 50.1761 12.1922 50.9986 12.1922 52.0771V67.8885C10.9492 68.2907 9.87071 69.0218 9.08471 70.0637C8.22559 71.1787 7.76861 72.5131 7.76861 73.9389C7.76861 77.4485 10.6201 80.3 14.1297 80.3C17.6393 80.3 20.5091 77.4485 20.5091 73.9389C20.5091 70.4293 18.7543 68.7111 16.1222 67.8885V54.1061H28.6433C32.7561 60.4489 38.5871 64.9639 46.4654 67.8885C46.6848 67.9616 46.9224 67.9982 47.1418 67.9982C47.3611 67.9982 47.5805 67.9616 47.7998 67.9068C55.3673 65.0187 61.308 60.3758 65.494 54.1061H78.5452V67.8885C76.0044 68.7659 74.1948 71.2519 74.1948 73.9389C74.1948 76.6259 77.0646 80.3 80.5925 80.3C84.1203 80.3 86.917 77.4485 86.917 73.9389C86.917 70.4293 86.4601 71.1787 85.601 70.0637C84.7967 69.0401 83.7365 68.2907 82.4752 67.8885V52.0771C82.4752 50.9804 81.6892 50.1761 80.6108 50.1761H67.7057C69.1681 46.9407 70.1551 44.2902 70.8497 41.7129H81.8355C82.6763 44.3633 85.0709 46.1181 87.9041 46.1181C91.4137 46.1181 94.2835 43.2666 94.2835 39.757C94.2835 36.2474 91.432 33.3959 87.9041 33.3959L87.9224 33.3776ZM90.3718 39.7387C90.3718 41.0731 89.275 42.1698 87.9407 42.1698C86.6063 42.1698 85.5096 41.0731 85.5096 39.7387C85.5096 38.4044 86.6063 37.3076 87.9407 37.3076C89.275 37.3076 90.3718 38.4044 90.3718 39.7387ZM78.1979 6.34284C78.1979 5.00847 79.2947 3.91172 80.629 3.91172C81.9634 3.91172 83.0602 5.00847 83.0602 6.34284C83.0602 7.67721 81.9634 8.77396 80.629 8.77396C79.2947 8.77396 78.1979 7.67721 78.1979 6.34284ZM80.629 76.37C79.2764 76.37 78.1979 75.2733 78.1979 73.9389C78.1979 72.6045 79.2947 71.5078 80.629 71.5078C81.9634 71.5078 83.0602 72.6045 83.0602 73.9389C83.0602 75.2733 81.9634 76.37 80.629 76.37ZM70.0089 20.4543C69.2229 31.111 68.0348 39.7205 64.8907 46.9407C63.1725 50.889 60.979 54.1426 58.2006 56.8845C55.2028 59.8274 51.5836 62.1306 47.1418 63.922C42.6999 62.1672 39.0624 59.9006 36.0646 56.9759C33.2679 54.2523 31.0744 50.9986 29.3562 47.0504C26.2122 39.8301 25.0058 31.1841 24.2198 20.4543C25.3531 20.5822 26.4864 20.6554 27.6014 20.6554C31.4035 20.6554 35.041 19.9425 38.3861 18.5167C41.7677 17.0909 44.6924 15.0071 47.1052 12.3384C49.8105 14.9157 52.7534 16.9264 55.8792 18.3522C59.3156 19.9242 62.8801 20.7102 66.4628 20.7102C70.0455 20.7102 68.839 20.6188 70.0272 20.4543H70.0089ZM16.5426 6.34284C16.5426 7.67721 15.4458 8.77396 14.1115 8.77396C12.7771 8.77396 11.6803 7.67721 11.6803 6.34284C11.6803 5.00847 12.7771 3.91172 14.1115 3.91172C15.4458 3.91172 16.5426 5.00847 16.5426 6.34284ZM6.36112 37.3076C7.71377 37.3076 8.79224 38.4044 8.79224 39.7387C8.79224 40.3785 8.53633 41 8.07936 41.457C7.62238 41.9139 7.00089 42.1698 6.36112 42.1698C5.00847 42.1698 3.93 41.0731 3.93 39.7387C3.93 38.4044 5.02675 37.3076 6.36112 37.3076ZM16.5426 73.9389C16.5426 75.2733 15.4458 76.37 14.1115 76.37C12.7771 76.37 11.6803 75.2733 11.6803 73.9389C11.6803 72.6045 12.7771 71.5078 14.1115 71.5078C15.4458 71.5078 16.5426 72.6045 16.5426 73.9389Z" fill="url(#paint1_linear_196_102)"/>
<defs>
<linearGradient id="paint0_linear_196_102" x1="47.1152" y1="28.9541" x2="47.1152" y2="50.3041" gradientUnits="userSpaceOnUse">
<stop stop-color="#31F469"/>
<stop offset="1" stop-color="#00B0F0"/>
</linearGradient>
<linearGradient id="paint1_linear_196_102" x1="47.1418" y1="0" x2="47.1418" y2="80.3" gradientUnits="userSpaceOnUse">
<stop stop-color="#31F469"/>
<stop offset="1" stop-color="#00B0F0"/>
</linearGradient>
</defs>
</svg>
